<svg fill="none" viewBox="0 0 100 100" xmlns="http://www.w3.org/2000/svg"><path clip-rule="evenodd" d="M33.333 25c0-9.205 7.462-16.667 16.667-16.667h22.917c10.355 0 18.75 8.395 18.75 18.75v45.834c0 10.355-8.395 18.75-18.75 18.75H50c-9.205 0-16.667-7.462-16.667-16.667v-4.167a4.167 4.167 0 0 1 8.334 0V75A8.333 8.333 0 0 0 50 83.333h22.917c5.753 0 10.416-4.663 10.416-10.416V27.083c0-5.753-4.663-10.416-10.416-10.416H50A8.333 8.333 0 0 0 41.667 25v4.167a4.167 4.167 0 0 1-8.334 0V25Zm17.887 9.554a4.167 4.167 0 0 1 5.893 0l12.5 12.5a4.167 4.167 0 0 1 0 5.892l-12.5 12.5a4.167 4.167 0 0 1-5.893-5.892l5.387-5.387H20.833a4.167 4.167 0 1 1 0-8.334h35.774l-5.387-5.387a4.167 4.167 0 0 1 0-5.892Z" fill="#ffffff" fill-rule="evenodd" class="fill-000000"></path></svg>